<svg width="89" height="194" viewBox="0 0 89 194" fill="none" xmlns="http://www.w3.org/2000/svg">
<path d="M8.5244 194V162.881L68.327 100.102C73.3782 94.5094 77.4372 89.4582 80.504 84.9482C83.7512 80.4382 86.0964 76.1086 87.5396 71.9594C88.9828 67.8102 89.7044 63.661 89.7044 59.5118C89.7044 51.5742 87.0886 45.5308 81.857 41.3816C76.8058 37.2324 69.4094 35.1578 59.6678 35.1578C51.9106 35.1578 44.1534 36.6912 36.3962 39.758C28.639 42.6444 21.0622 47.1544 13.6658 53.288L0.135802 22.4396C8.0734 15.5844 17.815 10.1724 29.3606 6.20357C41.0866 2.23477 53.0832 0.250368 65.3504 0.250368C79.602 0.250368 91.5986 2.41517 101.34 6.74477C111.082 10.894 118.478 17.0276 123.529 25.1456C128.581 33.2636 131.106 43.1856 131.106 54.9116C131.106 60.6844 130.475 66.367 129.212 71.9594C127.949 77.3714 125.875 82.7834 122.988 88.1954C120.282 93.427 116.764 98.9292 112.435 104.702C108.286 110.294 103.144 116.157 97.0106 122.291L49.6556 170.458V159.634H138.142L138.142 194H8.5244Z" fill="#F8F2F4"/>
</svg>
