<svg width="91" height="197" viewBox="0 0 91 197" fill="none" xmlns="http://www.w3.org/2000/svg">
<path d="M68.5798 196.977C59.7402 196.977 51.081 196.075 42.6022 194.271C34.1234 192.647 26.276 190.302 19.06 187.235C12.0244 183.988 5.8908 180.199 0.659202 175.87L13.9186 144.21C22.217 150.163 30.6958 154.673 39.355 157.74C48.1946 160.626 57.395 162.069 66.9562 162.069C74.1722 162.069 80.2156 161.167 85.0864 159.363C89.9572 157.379 93.6554 154.583 96.181 150.975C98.7066 147.367 99.9694 142.857 99.9694 137.445C99.9694 129.868 97.3536 124.185 92.122 120.397C86.8904 116.608 79.2234 114.714 69.121 114.714H37.1902L37.1902 80.8892H65.062C71.1956 80.8892 76.337 79.9872 80.4862 78.1832C84.8158 76.1988 88.1532 73.4928 90.4984 70.0652C93.024 66.6376 94.2868 62.3982 94.2868 57.347C94.2868 50.131 91.7612 44.6288 86.71 40.8404C81.8392 37.052 74.7134 35.1578 65.3326 35.1578C56.3126 35.1578 47.8338 36.6912 39.8962 39.758C31.9586 42.6444 24.3818 47.1544 17.1658 53.288L3.9064 22.4396C11.844 15.404 21.5856 9.99197 33.1312 6.20357C44.6768 2.23477 56.6734 0.250368 69.121 0.250368C82.8314 0.250368 94.5574 2.32497 104.299 6.47417C114.041 10.6234 121.527 16.5766 126.759 24.3338C131.99 31.9106 134.606 41.111 134.606 51.935C134.606 63.1198 131.449 72.7712 125.135 80.8892C119.002 88.8268 110.433 94.1486 99.4282 96.8546V93.3368C108.087 94.78 115.394 97.6664 121.347 101.996C127.48 106.326 132.171 111.828 135.418 118.503C138.665 125.177 140.289 132.754 140.289 141.233C140.289 152.598 137.402 162.52 131.63 170.999C125.857 179.297 117.558 185.702 106.734 190.212C96.0908 194.722 83.3726 196.977 68.5798 196.977Z" fill="#F8F2F4"/>
</svg>
