<svg width="73" height="72" viewBox="0 0 73 72" fill="none" xmlns="http://www.w3.org/2000/svg">
<path d="M65.9166 9H61.4166V5.40113C61.4166 3.6675 60.1139 2.25 58.5254 2.25H44.0534C42.4694 2.25 41.1666 3.6675 41.1666 5.40113V9H14.1003L7.41663 22.5H12.0573V31.5H11.3058L7.55725 36L11.3058 40.5H12.127V42.9165C12.127 43.5274 12.5984 44.0213 13.1823 44.0213C14.9271 44.0213 16.3469 45.5107 16.3469 47.3411C16.3469 49.1715 14.9271 50.661 13.1823 50.661C11.4374 50.661 10.0176 49.1715 10.0176 47.3411C10.0176 46.7303 9.54513 46.2364 8.96238 46.2364C8.3785 46.2364 7.90713 46.7303 7.90713 47.3411C7.90938 50.3944 10.2741 52.875 13.1823 52.875C16.0904 52.875 18.4563 50.3944 18.4563 47.3423C18.4563 44.6704 16.6416 42.4339 14.2375 41.922V40.5H15.0576L18.8073 36L15.0576 31.5H14.3073V22.5H41.1666V30.5989C41.1666 32.0929 42.1353 33.345 43.4166 33.6667V69.75H46.3698V63L56.2135 66.375L46.3698 69.75H59.1666V33.6656C60.4491 33.345 61.4166 32.0929 61.4166 30.5989V22.5H65.9166V19.125H63.5789L65.9166 14.6869V9ZM12.64 19.125L15.268 13.7261L18.1098 19.125H12.64ZM17.6148 12.375H22.2869L19.9514 16.8131L17.6148 12.375ZM21.793 19.125L24.1296 14.6869L26.4674 19.125H21.793ZM25.9724 12.375H30.6445L28.3079 16.8131L25.9724 12.375ZM30.1518 19.125L32.4873 14.6869L34.8228 19.125H30.1518ZM34.33 12.375H39.0021L36.6666 16.8131L34.33 12.375ZM41.1666 19.125H38.5083L40.8438 14.6869L41.1666 15.3V19.125ZM56.2135 63L46.3698 59.625L56.2135 56.25V63ZM46.3698 56.25V49.5L56.2135 52.8773L46.3698 56.25ZM56.2135 49.5L46.3698 46.125L56.2135 42.75V49.5ZM46.3698 42.75V36.0023L56.2135 39.375L46.3698 42.75ZM56.2135 36.0023L49.6491 33.75H56.2135V36.0023ZM57.901 17.154C57.901 18.2374 57.1405 19.125 56.2135 19.125H46.0863C45.1593 19.125 44.401 18.2374 44.401 17.154V7.60275C44.401 6.51262 45.1593 5.625 46.0863 5.625H56.2135C57.1405 5.625 57.901 6.51262 57.901 7.60275V17.154ZM61.7373 16.8131L61.4166 16.2034V12.375H64.0728L61.7373 16.8131Z" fill="url(#paint0_radial_200_174)"/>
<defs>
<radialGradient id="paint0_radial_200_174" cx="0" cy="0" r="1" gradientUnits="userSpaceOnUse" gradientTransform="translate(36.6666 36) rotate(63.822) scale(55.1576 47.8033)">
<stop stop-color="#761C30"/>
<stop offset="1" stop-color="#DC335A"/>
</radialGradient>
</defs>
</svg>
