<svg width="72" height="72" viewBox="0 0 72 72" fill="none" xmlns="http://www.w3.org/2000/svg">
<path d="M6.3 35.8066C6.3 37.0392 7.28022 37.7841 8.49393 37.7841C9.24286 37.7841 9.8365 37.4248 10.353 36.911L35.5469 14.0835C35.8299 13.8008 36.1405 13.6978 36.4753 13.6978C36.7859 13.6978 37.0701 13.8008 37.3785 14.0835L62.547 36.911C63.0888 37.4248 63.6825 37.7841 64.4061 37.7841C65.6187 37.7841 66.6 37.0392 66.6 35.8066C66.6 35.0364 66.3158 34.5489 65.8257 34.1118L56.8936 26.0242V10.8482C56.8936 9.7187 56.1711 9 55.0356 9H51.6544C50.5442 9 49.77 9.7187 49.77 10.8482V19.5789L39.5471 10.2829C38.6439 9.43604 37.5338 9.02629 36.45 9.02629C35.3652 9.02629 34.2814 9.43714 33.3519 10.284L7.07427 34.1118C6.60949 34.5489 6.3 35.0364 6.3 35.8066ZM13.6825 57.3501C13.6825 60.9195 15.8511 63 19.49 63H29.9453V44.7422C29.9453 43.5611 30.7449 42.792 31.9322 42.792H41.0449C42.2322 42.792 43.0065 43.5611 43.0065 44.7422V63H53.4353C57.0743 63 59.2175 60.9195 59.2175 57.3501V38.5543L37.3014 18.9106C37.0172 18.6542 36.7077 18.5261 36.3982 18.5261C36.1141 18.5261 35.8299 18.6542 35.5204 18.9369L13.6825 38.6825V57.3501Z" fill="url(#paint0_radial_200_164)"/>
<defs>
<radialGradient id="paint0_radial_200_164" cx="0" cy="0" r="1" gradientUnits="userSpaceOnUse" gradientTransform="translate(36 40.5) rotate(41.0548) scale(41.1096 45.9057)">
<stop stop-color="#761C30"/>
<stop offset="1" stop-color="#DC335A"/>
</radialGradient>
</defs>
</svg>
