<svg width="73" height="72" viewBox="0 0 73 72" fill="none" xmlns="http://www.w3.org/2000/svg">
<path fill-rule="evenodd" clip-rule="evenodd" d="M35.3433 15.1829C29.0427 7.36299 17.7864 6.89232 10.9234 14.1618C6.1152 19.2548 4.86518 26.6894 7.17326 33.0001H19.4764L27.3334 17.2918L36.3334 35.289L40.8334 26.2918L44.1874 33.0001H65.4938C67.8018 26.6895 66.5517 19.2548 61.7436 14.1618C54.8806 6.89246 43.6244 7.36299 37.3237 15.1829L36.3335 16.4118L35.3433 15.1829ZM61.8231 39H41.1875L36.3334 48.7081L27.3334 30.708L23.1875 39H10.844C10.8703 39.0283 10.8968 39.0565 10.9234 39.0848L36.3207 65.9865L36.3333 66H36.3334L61.7435 39.0848C61.77 39.0566 61.7965 39.0284 61.8229 39" fill="url(#paint0_radial_200_158)"/>
<defs>
<radialGradient id="paint0_radial_200_158" cx="0" cy="0" r="1" gradientUnits="userSpaceOnUse" gradientTransform="translate(36.3335 37.5) rotate(90.4246) scale(45.0013 47.8169)">
<stop stop-color="#761C30"/>
<stop offset="1" stop-color="#DC335A"/>
</radialGradient>
</defs>
</svg>
