<svg width="73" height="72" viewBox="0 0 73 72" fill="none" xmlns="http://www.w3.org/2000/svg">
<path d="M33.6666 45V39H39.6666V45H33.6666ZM30.6666 21H42.6666V16.845C42.6666 16.385 42.4746 15.962 42.0906 15.576C41.7066 15.19 41.2836 14.998 40.8216 15H32.5116C32.0516 15 31.6286 15.192 31.2426 15.576C30.8566 15.96 30.6646 16.383 30.6666 16.845V21ZM14.5146 60C13.1326 60 11.9796 59.538 11.0556 58.614C10.1316 57.69 9.66863 56.536 9.66663 55.152V43.5H30.6666V45.576C30.6666 46.272 30.8966 46.85 31.3566 47.31C31.8166 47.77 32.3946 48 33.0906 48H40.2426C40.9386 48 41.5166 47.77 41.9766 47.31C42.4366 46.85 42.6666 46.272 42.6666 45.576V43.5H63.6666V55.155C63.6666 56.535 63.2046 57.687 62.2806 58.611C61.3566 59.535 60.2036 59.998 58.8216 60H14.5146ZM9.66663 40.5V25.848C9.66663 24.466 10.1296 23.313 11.0556 22.389C11.9816 21.465 13.1336 21.002 14.5116 21H27.6666V16.845C27.6666 15.465 28.1296 14.312 29.0556 13.386C29.9816 12.46 31.1346 11.998 32.5146 12H40.8216C42.2016 12 43.3546 12.462 44.2806 13.386C45.2066 14.31 45.6686 15.463 45.6666 16.845V21H58.8216C60.2016 21 61.3536 21.463 62.2776 22.389C63.2016 23.315 63.6646 24.468 63.6666 25.848V40.5H42.6666V38.424C42.6666 37.728 42.4366 37.15 41.9766 36.69C41.5166 36.23 40.9386 36 40.2426 36H33.0906C32.3946 36 31.8166 36.23 31.3566 36.69C30.8966 37.15 30.6666 37.728 30.6666 38.424V40.5H9.66663Z" fill="url(#paint0_radial_200_161)"/>
<defs>
<radialGradient id="paint0_radial_200_161" cx="0" cy="0" r="1" gradientUnits="userSpaceOnUse" gradientTransform="translate(36.6666 36) rotate(89.4464) scale(34.5016 38.8143)">
<stop stop-color="#761C30"/>
<stop offset="1" stop-color="#DC335A"/>
</radialGradient>
</defs>
</svg>
