<svg width="72" height="72" viewBox="0 0 72 72" fill="none" xmlns="http://www.w3.org/2000/svg">
<path d="M21 60.075V33H25.8C26.15 33 26.5 33.038 26.85 33.114C27.2 33.19 27.55 33.277 27.9 33.375L48.675 41.1C49.375 41.35 49.938 41.8 50.364 42.45C50.79 43.1 51.002 43.775 51 44.475C51 45.525 50.637 46.375 49.911 47.025C49.185 47.675 48.348 48 47.4 48H39.525C39.275 48 39.088 47.988 38.964 47.964C38.84 47.94 38.677 47.877 38.475 47.775L33.675 45.9L32.7 48.825L38.475 50.85C38.575 50.9 38.725 50.938 38.925 50.964C39.125 50.99 39.3 51.002 39.45 51H60C61.6 51 63 51.575 64.2 52.725C65.4 53.875 66 55.3 66 57L42.075 66L21 60.075ZM3 66V33H15V66H3ZM45 34.95L27.75 28.5H15.75C16.6 25.95 18.013 23.75 19.989 21.9C21.965 20.05 24.302 18.85 27 18.3V12H22.5V6H39C40.7 6 42.3 6.275 43.8 6.825C45.3 7.375 46.675 8.125 47.925 9.075L43.65 13.35C42.95 12.95 42.212 12.625 41.436 12.375C40.66 12.125 39.848 12 39 12H33V18.3C36.45 19 39.312 20.713 41.586 23.439C43.86 26.165 44.998 29.352 45 33V34.95ZM57 30C55.35 30 53.938 29.412 52.764 28.236C51.59 27.06 51.002 25.648 51 24C51 22.85 51.425 21.425 52.275 19.725C53.125 18.025 54.7 15.45 57 12C59.3 15.45 60.875 18.025 61.725 19.725C62.575 21.425 63 22.85 63 24C63 25.65 62.413 27.063 61.239 28.239C60.065 29.415 58.652 30.002 57 30Z" fill="url(#paint0_radial_199_155)"/>
<defs>
<radialGradient id="paint0_radial_199_155" cx="0" cy="0" r="1" gradientUnits="userSpaceOnUse" gradientTransform="translate(27 36) rotate(80.8195) scale(50.1423 52.6494)">
<stop stop-color="#761C30"/>
<stop offset="1" stop-color="#DC335A"/>
</radialGradient>
</defs>
</svg>
