<svg width="73" height="72" viewBox="0 0 73 72" fill="none" xmlns="http://www.w3.org/2000/svg">
<path d="M49.8333 30.975L58.0833 26.175C58.5833 25.875 58.8333 25.45 58.8333 24.9C58.8333 24.35 58.5833 23.925 58.0833 23.625L49.8333 18.825C49.3833 18.575 48.8833 18.45 48.3333 18.45C47.7833 18.45 47.2833 18.575 46.8333 18.825L38.5833 23.625C38.0833 23.925 37.8333 24.35 37.8333 24.9C37.8333 25.45 38.0833 25.875 38.5833 26.175L46.8333 30.975C47.2833 31.225 47.7833 31.35 48.3333 31.35C48.8833 31.35 49.3833 31.225 49.8333 30.975ZM49.8333 40.05L55.0833 37.05C55.5333 36.8 55.8963 36.438 56.1723 35.964C56.4483 35.49 56.5853 34.977 56.5833 34.425V29.85L49.8333 33.75C49.3833 34 48.8833 34.125 48.3333 34.125C47.7833 34.125 47.2833 34 46.8333 33.75L40.0833 29.85V34.425C40.0833 34.975 40.2213 35.488 40.4973 35.964C40.7733 36.44 41.1353 36.802 41.5833 37.05L46.8333 40.05C47.2833 40.3 47.7833 40.425 48.3333 40.425C48.8833 40.425 49.3833 40.3 49.8333 40.05ZM47.8083 60C47.1083 60 46.5213 59.738 46.0473 59.214C45.5733 58.69 45.3103 58.077 45.2583 57.375C44.9583 52.625 43.8713 48.188 41.9973 44.064C40.1233 39.94 37.6733 36.277 34.6473 33.075C31.6213 29.873 28.0953 27.248 24.0693 25.2C20.0433 23.152 15.7073 21.852 11.0613 21.3C9.76134 21.15 8.64934 20.638 7.72534 19.764C6.80134 18.89 6.33734 17.802 6.33334 16.5C6.32934 15.198 6.79234 14.123 7.72234 13.275C8.65234 12.427 9.76434 12.002 11.0583 12H60.3333C61.9833 12 63.3963 12.588 64.5723 13.764C65.7483 14.94 66.3353 16.352 66.3333 18V54C66.3333 55.65 65.7463 57.063 64.5723 58.239C63.3983 59.415 61.9853 60.002 60.3333 60H47.8083ZM24.3333 60C23.5333 60 22.8333 59.762 22.2333 59.286C21.6333 58.81 21.2583 58.173 21.1083 57.375C20.5583 54.225 19.1463 51.55 16.8723 49.35C14.5983 47.15 11.8853 45.775 8.73334 45.225C7.98334 45.125 7.39634 44.763 6.97234 44.139C6.54834 43.515 6.33534 42.802 6.33334 42C6.33334 41.15 6.60834 40.438 7.15834 39.864C7.70834 39.29 8.35834 39.052 9.10834 39.15C13.8083 39.75 17.8213 41.725 21.1473 45.075C24.4733 48.425 26.4603 52.45 27.1083 57.15C27.2083 57.95 26.9833 58.625 26.4333 59.175C25.8833 59.725 25.1833 60 24.3333 60ZM36.3333 60C35.4833 60 34.7713 59.725 34.1973 59.175C33.6233 58.625 33.2853 57.925 33.1833 57.075C32.4833 50.675 29.8713 45.25 25.3473 40.8C20.8233 36.35 15.3603 33.8 8.95834 33.15C8.15834 33.05 7.52034 32.7 7.04434 32.1C6.56834 31.5 6.33134 30.8 6.33334 30C6.33334 29.15 6.59634 28.425 7.12234 27.825C7.64834 27.225 8.28534 26.975 9.03334 27.075C17.0833 27.725 23.9333 30.85 29.5833 36.45C35.2333 42.05 38.4333 48.875 39.1833 56.925C39.2833 57.775 39.0453 58.5 38.4693 59.1C37.8933 59.7 37.1813 60 36.3333 60ZM10.0833 60C9.03334 60 8.14534 59.637 7.41934 58.911C6.69334 58.185 6.33134 57.298 6.33334 56.25C6.33534 55.202 6.69834 54.314 7.42234 53.586C8.14634 52.858 9.03334 52.496 10.0833 52.5C11.1333 52.504 12.0213 52.867 12.7473 53.589C13.4733 54.311 13.8353 55.198 13.8333 56.25C13.8313 57.302 13.4683 58.19 12.7443 58.914C12.0203 59.638 11.1333 60 10.0833 60Z" fill="url(#paint0_radial_200_167)"/>
<defs>
<radialGradient id="paint0_radial_200_167" cx="0" cy="0" r="1" gradientUnits="userSpaceOnUse" gradientTransform="translate(34 37) rotate(50.9881) scale(50.8355 63.5444)">
<stop stop-color="#761C30"/>
<stop offset="1" stop-color="#DC335A"/>
</radialGradient>
</defs>
</svg>
